<?xml version="1.0" standalone="no"?>
<!DOCTYPE svg PUBLIC "-//W3C//DTD SVG 20010904//EN"
 "http://www.w3.org/TR/2001/REC-SVG-20010904/DTD/svg10.dtd">
<svg version="1.0" xmlns="http://www.w3.org/2000/svg"
 width="42.000000pt" height="38.000000pt" viewBox="0 0 42.000000 38.000000"
 preserveAspectRatio="xMidYMid meet">

<g transform="translate(0.000000,38.000000) scale(0.100000,-0.100000)"
fill="#000000" stroke="none">
<path d="M125 274 c-29 -65 -29 -67 -13 -111 11 -30 28 -45 28 -25 0 12 98 82
131 94 34 12 33 7 13 58 l-16 40 -59 0 -59 0 -25 -56z"/>
<path d="M253 203 c-18 -9 -33 -20 -33 -25 0 -4 12 -33 26 -65 28 -64 29 -64
62 22 30 82 14 102 -55 68z"/>
<path d="M57 110 l-26 -60 55 0 c30 0 54 2 54 4 0 6 -51 116 -54 116 -2 0 -14
-27 -29 -60z"/>
</g>
</svg>
